<svg id="Layer_1" data-name="Layer 1" xmlns="http://www.w3.org/2000/svg" viewBox="0 0 238.59 43.38"><defs><style>.cls-1{fill:#fcb32e;}</style></defs><title>Artboard 6</title><path class="cls-1" d="M46.83,41.94H32.73a.86.86,0,0,1-.84-.48c-.72-1.62-1.32-3.06-2-4.56h-14c-.78,1.68-1.2,2.94-1.92,4.38-.3.54-.36.66-1.2.66H.45c-.48,0-.6-.24-.24-.84C7.47,28,15.57,12.42,21.87.72c.12-.24.78-.3,1.44-.3s1.44,0,1.56.24c7,12.72,14.76,27.24,22.2,40.44C47.49,41.94,47.49,41.94,46.83,41.94Zm-22.92-20c-.54-1.26-1-2.4-1-2.4s-.42,1.14-1,2.4c-1.08,2.58-2.7,6.12-2.7,6.12h7.26S25.05,24.42,23.91,21.9Z"/><path class="cls-1" d="M61.11,41.94H48.87c-.42,0-.48,0-.48-.84V.78c0-.72,0-.78.42-.78H61.05c.42,0,.54.06.54.78v40.5C61.59,41.82,61.47,41.94,61.11,41.94Z"/><path class="cls-1" d="M78.81,41.94H66.57c-.42,0-.48,0-.48-.84V.78c0-.72,0-.78.42-.78H78.75c.42,0,.54.06.54.78v40.5C79.29,41.82,79.17,41.94,78.81,41.94Z"/><path class="cls-1" d="M130.35,12.48l-10.56-.66V41.4c0,.48-.06.54-.6.54h-13c-.6,0-.6.06-.6-.54V11.82l-10.92.66c-.42,0-.42-.06-.42-.42V1.86c0-.48,0-.6.48-.6h35.58c.42,0,.48.12.48.6v10.2C130.77,12.42,130.71,12.48,130.35,12.48Z"/><path class="cls-1" d="M147.27,9.54H134.91c-.42,0-.48-.42-.48-.78v-8c0-.36,0-.78.42-.78h12.42c.42,0,.54.06.54.78v8.1C147.81,9.42,147.69,9.54,147.27,9.54Zm0,32.4H134.91c-.42,0-.48,0-.48-.84V12.36c0-.66,0-.72.42-.72h12.42c.42,0,.54.06.54.72V41.28C147.81,41.82,147.69,41.94,147.27,41.94Z"/><path class="cls-1" d="M203.43,41.94H191.61c-.42,0-.6,0-.6-.66V24.12c0-2.88-.9-4-3-4A3.29,3.29,0,0,0,185,22V41c0,.72-.06.9-.66.9h-11.7c-.42,0-.6,0-.6-.66V24.12c0-2.88-.9-4-3-4a4,4,0,0,0-3.06,1.92v19.2c0,.54-.12.66-.48.66H153.39c-.42,0-.48,0-.48-.84V12.36c0-.66,0-.72.42-.72h11.82c.48,0,.6.06.6.72v2.58a12.57,12.57,0,0,1,10-4.5c5.34,0,7.26,1.86,8.58,4.92a13,13,0,0,1,10.44-4.92c6.9,0,9.3,3.42,9.3,9.9V41C204,41.88,204,41.94,203.43,41.94Z"/><path class="cls-1" d="M238.35,29.16c-.12.6-.3.72-1.26.72H219c.18,1.68,1.8,3.3,4.62,3.3a9,9,0,0,0,5-1.32c.24-.24.48-.12.78.24,1.14,1.74,2.82,4.38,4.56,7.2a.87.87,0,0,1-.36,1.38c-2,1.38-5,2.7-9.9,2.7-9.84,0-16.44-6.36-16.44-16.62,0-9.78,6.6-16.32,16.56-16.32,8.34,0,14.7,5.64,14.7,14.28A36.62,36.62,0,0,1,238.35,29.16Zm-14.94-8.58A4.08,4.08,0,0,0,219,23.94h9C227.85,22,226.23,20.58,223.41,20.58Z"/></svg>