<svg id="Layer_1" data-name="Layer 1" xmlns="http://www.w3.org/2000/svg" viewBox="0 0 417.54 43.38"><defs><style>.cls-1{fill:#fcb32e;}</style></defs><title>Artboard 4</title><path class="cls-1" d="M21.9,43.38c-13,0-21.9-8.7-21.9-21.6C0,9.66,8.76,0,22.08,0,32.52,0,38.94,5.94,41.64,12.78c.24.72,0,.9-.3,1l-11.7,4.26c-.36.12-.42-.12-.54-.36-1.26-2.4-3.24-4-7.08-4-5.16,0-8,3.3-8,8.1s3.24,7.92,8.16,7.92A7.26,7.26,0,0,0,29,25.86c.18-.42.24-.54.72-.42L41.46,29c.66.06.72.42.54.78C39,36.78,32.1,43.38,21.9,43.38Z"/><path class="cls-1" d="M77.58,41.94h-12c-.42,0-.54-.06-.54-.78V38.64c-1.56,2.76-5.16,4.5-10,4.5-7,0-9.9-4.08-9.9-10.8V12.48c0-.78.06-.84.6-.84H57.72c.48,0,.6,0,.6.66V28.86c0,2.88.84,4.14,3.24,4.14a3.82,3.82,0,0,0,3.3-2.1V12.3c0-.54.06-.66.48-.66H77.52c.48,0,.54,0,.54.78V41.16C78.06,41.88,78.06,41.94,77.58,41.94Z"/><path class="cls-1" d="M104.22,25.14c-.18.18-.06.24-1.26.24,0-2.76-1.2-4.14-3.48-4.14a4.72,4.72,0,0,0-3.72,2.28V41.28c0,.54-.12.66-.48.66H83c-.42,0-.48,0-.48-.84V12.36c0-.66,0-.72.42-.72H95c.42,0,.54.06.54.72v3.3a8.8,8.8,0,0,1,7.5-5c4.68,0,7.8,2.76,8.1,7.38C109.86,19.44,105,24.36,104.22,25.14Z"/><path class="cls-1" d="M134.76,25.14c-.18.18-.06.24-1.26.24,0-2.76-1.2-4.14-3.48-4.14a4.72,4.72,0,0,0-3.72,2.28V41.28c0,.54-.12.66-.48.66H113.58c-.42,0-.48,0-.48-.84V12.36c0-.66,0-.72.42-.72h12c.42,0,.54.06.54.72v3.3a8.8,8.8,0,0,1,7.5-5c4.68,0,7.8,2.76,8.1,7.38C140.4,19.44,135.54,24.36,134.76,25.14Z"/><path class="cls-1" d="M172.56,29.16c-.12.6-.3.72-1.26.72H153.24c.18,1.68,1.8,3.3,4.62,3.3a9,9,0,0,0,5-1.32c.24-.24.48-.12.78.24,1.14,1.74,2.82,4.38,4.56,7.2a.87.87,0,0,1-.36,1.38c-2,1.38-5,2.7-9.9,2.7-9.84,0-16.44-6.36-16.44-16.62,0-9.78,6.6-16.32,16.56-16.32,8.34,0,14.7,5.64,14.7,14.28A36.62,36.62,0,0,1,172.56,29.16Zm-14.94-8.58a4.08,4.08,0,0,0-4.38,3.36h9C162.06,22,160.44,20.58,157.62,20.58Z"/><path class="cls-1" d="M208.08,41.94H196.14c-.42,0-.6,0-.6-.66V23.94c0-2.1-1-3.36-3.3-3.36a3.71,3.71,0,0,0-3.18,2.28V41.28c0,.54-.12.66-.48.66H176.34c-.42,0-.48,0-.48-.84V12.36c0-.66,0-.72.42-.72h12c.42,0,.54.06.54.72v2.58c1.5-2.58,5.28-4.5,10.44-4.5,6.84,0,9.48,3.42,9.48,9.9V41C208.74,41.88,208.62,41.94,208.08,41.94Z"/><path class="cls-1" d="M234.06,22.2c-1.32,0-4.5-.06-6-.06v6.42c0,2.64,1.14,4,4.38,3.3.78-.18,1.14.06,1.2.72s.66,7,.78,7.8a.83.83,0,0,1-.54.9,25,25,0,0,1-6.78,1.2c-10.68,0-12.06-6.6-12.06-12.66V22.08H212c-.48,0-.66,0-.66-.66V12.36c0-.3.06-.72.42-.72H215l.12-9.54c0-.6.12-.84.48-.84H227c.48,0,1.2-.06,1.2.3l-.12,10.08h6.12c.36,0,.54.18.54.48V21.3C234.72,21.9,234.66,22.2,234.06,22.2Z"/><path class="cls-1" d="M289.86,43a2.13,2.13,0,0,1-.66-.18l-7-3.9c-2.82,2.1-6.12,4.44-12.36,4.44-12.06,0-21.78-8.16-21.78-21.78C248,9,257.34.06,270.18.06c10.2,0,16.5,5.1,19.38,12.18.24.66.3.84-.18,1.08l-11.22,5c-.48.18-.78-.12-1-.6a7.87,7.87,0,0,0-7.08-3.9c-4.92,0-8,3.3-8,7.92,0,5.16,3.06,8,8.22,8,3.48,0,5.88-1.56,7-4.68.18-.42.24-.6.48-.6h12.06c.48,0,.48.06.48.42V42.72S290.4,43,289.86,43Z"/><path class="cls-1" d="M327.18,41.94h-9.36c-.66,0-.9-.3-.9-.78V38.7a11.21,11.21,0,0,1-9,4.14c-8.16,0-14.46-5.4-14.46-16.08,0-9.6,5.76-16,14.22-16,3.54,0,6.72,1.14,8.46,4.08V12.36c0-.66.06-.72.54-.72h10.56c.42,0,.42.06.42.72V41.1C327.66,41.94,327.6,41.94,327.18,41.94Zm-16.62-19.8a4.53,4.53,0,0,0-4.8,4.8,4.54,4.54,0,0,0,4.8,4.92c2.88,0,4.62-1.86,4.62-4.92A4.46,4.46,0,0,0,310.56,22.14Z"/><path class="cls-1" d="M382.38,41.94H370.55c-.42,0-.59,0-.59-.66V24.12c0-2.88-.9-4-3-4A3.29,3.29,0,0,0,363.9,22V41c0,.72-.07.9-.66.9h-11.7c-.42,0-.6,0-.6-.66V24.12c0-2.88-.9-4-3-4a4,4,0,0,0-3.06,1.92v19.2c0,.54-.12.66-.48.66H332.34c-.42,0-.48,0-.48-.84V12.36c0-.66,0-.72.42-.72H344.1c.48,0,.6.06.6.72v2.58a12.57,12.57,0,0,1,10-4.5c5.34,0,7.26,1.86,8.58,4.92a13,13,0,0,1,10.43-4.92c6.91,0,9.3,3.42,9.3,9.9V41C383,41.88,382.92,41.94,382.38,41.94Z"/><path class="cls-1" d="M417.3,29.16c-.12.6-.3.72-1.26.72H398c.18,1.68,1.8,3.3,4.62,3.3a9,9,0,0,0,5-1.32c.24-.24.48-.12.78.24,1.14,1.74,2.82,4.38,4.56,7.2a.87.87,0,0,1-.36,1.38c-2,1.38-5,2.7-9.9,2.7-9.84,0-16.44-6.36-16.44-16.62,0-9.78,6.6-16.32,16.56-16.32,8.34,0,14.7,5.64,14.7,14.28A36.62,36.62,0,0,1,417.3,29.16Zm-14.94-8.58A4.08,4.08,0,0,0,398,23.94h9C406.8,22,405.18,20.58,402.36,20.58Z"/></svg>